<svg xmlns="http://www.w3.org/2000/svg" xmlns:xlink="http://www.w3.org/1999/xlink" width="500" zoomAndPan="magnify" viewBox="0 0 375 374.999991" height="500" preserveAspectRatio="xMidYMid meet" version="1.0"><defs><g/><clipPath id="369f468bf5"><path d="M 149.292969 155.753906 L 227.292969 155.753906 L 227.292969 224.003906 L 149.292969 224.003906 Z M 149.292969 155.753906 " clip-rule="nonzero"/></clipPath></defs><g fill="#403029" fill-opacity="1"><g transform="translate(93.508796, 166.211091)"><g><path d="M 0.328125 -1.390625 C 0.304688 -1.304688 0.253906 -1.238281 0.171875 -1.1875 C 0.0976562 -1.144531 0.0195312 -1.132812 -0.0625 -1.15625 L -9.421875 -3.390625 C -9.503906 -3.410156 -9.566406 -3.457031 -9.609375 -3.53125 C -9.660156 -3.613281 -9.675781 -3.695312 -9.65625 -3.78125 L -8.4375 -8.875 C -8.351562 -9.226562 -8.203125 -9.546875 -7.984375 -9.828125 C -7.773438 -10.109375 -7.523438 -10.335938 -7.234375 -10.515625 C -6.953125 -10.691406 -6.640625 -10.8125 -6.296875 -10.875 C -5.953125 -10.945312 -5.601562 -10.9375 -5.25 -10.84375 L -0.40625 -9.6875 C -0.0390625 -9.601562 0.273438 -9.453125 0.546875 -9.234375 C 0.816406 -9.023438 1.039062 -8.773438 1.21875 -8.484375 C 1.40625 -8.203125 1.523438 -7.882812 1.578125 -7.53125 C 1.640625 -7.1875 1.628906 -6.835938 1.546875 -6.484375 Z M -1.25 -3.53125 L -0.4375 -6.953125 C -0.394531 -7.128906 -0.414062 -7.285156 -0.5 -7.421875 C -0.59375 -7.554688 -0.722656 -7.640625 -0.890625 -7.671875 L -5.734375 -8.828125 C -5.890625 -8.867188 -6.035156 -8.847656 -6.171875 -8.765625 C -6.316406 -8.691406 -6.410156 -8.566406 -6.453125 -8.390625 L -7.265625 -4.96875 Z M -1.25 -3.53125 "/></g></g></g><g fill="#403029" fill-opacity="1"><g transform="translate(97.098387, 152.42296)"><g><path d="M -7.03125 -9.984375 C -7 -10.066406 -6.941406 -10.132812 -6.859375 -10.1875 C -6.773438 -10.25 -6.679688 -10.28125 -6.578125 -10.28125 L -0.796875 -10.265625 C -0.710938 -10.265625 -0.609375 -10.25 -0.484375 -10.21875 C -0.359375 -10.195312 -0.253906 -10.171875 -0.171875 -10.140625 L 3.21875 -8.765625 C 3.300781 -8.734375 3.359375 -8.671875 3.390625 -8.578125 C 3.421875 -8.492188 3.421875 -8.414062 3.390625 -8.34375 L 2.859375 -7.03125 C 2.816406 -6.945312 2.753906 -6.890625 2.671875 -6.859375 C 2.597656 -6.828125 2.519531 -6.828125 2.4375 -6.859375 L 0.84375 -7.5 L -0.703125 -3.6875 L 0.890625 -3.046875 C 0.972656 -3.015625 1.03125 -2.957031 1.0625 -2.875 C 1.09375 -2.789062 1.09375 -2.707031 1.0625 -2.625 L 0.546875 -1.328125 C 0.503906 -1.242188 0.441406 -1.1875 0.359375 -1.15625 C 0.285156 -1.125 0.207031 -1.125 0.125 -1.15625 L -3.265625 -2.53125 C -3.347656 -2.5625 -3.441406 -2.609375 -3.546875 -2.671875 C -3.648438 -2.742188 -3.734375 -2.8125 -3.796875 -2.875 L -7.96875 -6.875 C -8.039062 -6.9375 -8.082031 -7.019531 -8.09375 -7.125 C -8.113281 -7.226562 -8.109375 -7.316406 -8.078125 -7.390625 Z M -2.578125 -4.546875 L -1.09375 -8.203125 L -5.53125 -8.21875 L -5.78125 -7.609375 Z M -2.578125 -4.546875 "/></g></g></g><g fill="#403029" fill-opacity="1"><g transform="translate(102.722696, 139.332319)"><g><path d="M -2.296875 -10.203125 C -2.335938 -10.117188 -2.398438 -10.066406 -2.484375 -10.046875 C -2.578125 -10.023438 -2.660156 -10.039062 -2.734375 -10.09375 L -2.828125 -10.15625 C -2.972656 -10.238281 -3.125 -10.257812 -3.28125 -10.21875 C -3.4375 -10.1875 -3.5625 -10.09375 -3.65625 -9.9375 L -5.15625 -7.40625 C -5.226562 -7.28125 -5.242188 -7.140625 -5.203125 -6.984375 C -5.171875 -6.828125 -5.082031 -6.707031 -4.9375 -6.625 L -4.1875 -6.171875 C -4.050781 -6.085938 -3.898438 -6.0625 -3.734375 -6.09375 C -3.578125 -6.132812 -3.460938 -6.21875 -3.390625 -6.34375 L -1.890625 -8.875 C -1.703125 -9.1875 -1.460938 -9.441406 -1.171875 -9.640625 C -0.890625 -9.847656 -0.582031 -9.992188 -0.25 -10.078125 C 0.0703125 -10.160156 0.40625 -10.179688 0.75 -10.140625 C 1.101562 -10.097656 1.4375 -9.984375 1.75 -9.796875 L 2.484375 -9.359375 C 2.804688 -9.171875 3.066406 -8.929688 3.265625 -8.640625 C 3.460938 -8.359375 3.601562 -8.050781 3.6875 -7.71875 C 3.769531 -7.394531 3.789062 -7.0625 3.75 -6.71875 C 3.707031 -6.375 3.59375 -6.046875 3.40625 -5.734375 L 1.90625 -3.203125 C 1.726562 -2.898438 1.5 -2.648438 1.21875 -2.453125 C 0.9375 -2.253906 0.628906 -2.109375 0.296875 -2.015625 C -0.0351562 -1.929688 -0.375 -1.910156 -0.71875 -1.953125 C -1.0625 -2.003906 -1.394531 -2.125 -1.71875 -2.3125 L -1.796875 -2.359375 C -1.878906 -2.410156 -1.929688 -2.476562 -1.953125 -2.5625 C -1.972656 -2.644531 -1.957031 -2.726562 -1.90625 -2.8125 L -1.1875 -4.015625 C -1.144531 -4.085938 -1.082031 -4.132812 -1 -4.15625 C -0.914062 -4.1875 -0.832031 -4.175781 -0.75 -4.125 L -0.671875 -4.078125 C -0.515625 -3.984375 -0.359375 -3.957031 -0.203125 -4 C -0.046875 -4.039062 0.0664062 -4.125 0.140625 -4.25 L 1.640625 -6.78125 C 1.734375 -6.9375 1.757812 -7.085938 1.71875 -7.234375 C 1.6875 -7.390625 1.59375 -7.515625 1.4375 -7.609375 L 0.703125 -8.046875 C 0.554688 -8.128906 0.40625 -8.148438 0.25 -8.109375 C 0.101562 -8.078125 -0.015625 -7.984375 -0.109375 -7.828125 L -1.609375 -5.296875 C -1.785156 -4.992188 -2.015625 -4.742188 -2.296875 -4.546875 C -2.578125 -4.347656 -2.882812 -4.203125 -3.21875 -4.109375 C -3.550781 -4.023438 -3.894531 -4.003906 -4.25 -4.046875 C -4.601562 -4.097656 -4.929688 -4.21875 -5.234375 -4.40625 L -5.984375 -4.859375 C -6.296875 -5.035156 -6.550781 -5.265625 -6.75 -5.546875 C -6.957031 -5.835938 -7.097656 -6.144531 -7.171875 -6.46875 C -7.253906 -6.800781 -7.273438 -7.140625 -7.234375 -7.484375 C -7.203125 -7.828125 -7.097656 -8.148438 -6.921875 -8.453125 L -5.421875 -10.984375 C -5.234375 -11.296875 -4.992188 -11.550781 -4.703125 -11.75 C -4.421875 -11.945312 -4.113281 -12.085938 -3.78125 -12.171875 C -3.457031 -12.265625 -3.117188 -12.285156 -2.765625 -12.234375 C -2.421875 -12.191406 -2.09375 -12.082031 -1.78125 -11.90625 L -1.6875 -11.84375 C -1.613281 -11.789062 -1.5625 -11.722656 -1.53125 -11.640625 C -1.507812 -11.554688 -1.519531 -11.476562 -1.5625 -11.40625 Z M -2.296875 -10.203125 "/></g></g></g><g fill="#403029" fill-opacity="1"><g transform="translate(110.253534, 127.2375)"><g><path d="M -0.71875 -10.421875 C -0.78125 -10.359375 -0.859375 -10.320312 -0.953125 -10.3125 C -1.046875 -10.300781 -1.128906 -10.320312 -1.203125 -10.375 L -1.28125 -10.453125 C -1.40625 -10.554688 -1.546875 -10.601562 -1.703125 -10.59375 C -1.859375 -10.582031 -1.992188 -10.507812 -2.109375 -10.375 L -3.96875 -8.109375 C -4.070312 -7.984375 -4.113281 -7.835938 -4.09375 -7.671875 C -4.082031 -7.515625 -4.015625 -7.382812 -3.890625 -7.28125 L -3.21875 -6.71875 C -3.082031 -6.613281 -2.929688 -6.566406 -2.765625 -6.578125 C -2.609375 -6.597656 -2.476562 -6.671875 -2.375 -6.796875 L -0.515625 -9.0625 C -0.285156 -9.34375 -0.0195312 -9.5625 0.28125 -9.71875 C 0.59375 -9.875 0.914062 -9.96875 1.25 -10 C 1.59375 -10.039062 1.929688 -10.007812 2.265625 -9.90625 C 2.597656 -9.8125 2.90625 -9.648438 3.1875 -9.421875 L 3.859375 -8.875 C 4.140625 -8.632812 4.359375 -8.359375 4.515625 -8.046875 C 4.679688 -7.742188 4.78125 -7.421875 4.8125 -7.078125 C 4.84375 -6.742188 4.8125 -6.410156 4.71875 -6.078125 C 4.625 -5.742188 4.460938 -5.4375 4.234375 -5.15625 L 2.375 -2.890625 C 2.144531 -2.609375 1.875 -2.390625 1.5625 -2.234375 C 1.25 -2.078125 0.925781 -1.984375 0.59375 -1.953125 C 0.257812 -1.921875 -0.0703125 -1.953125 -0.40625 -2.046875 C -0.75 -2.140625 -1.0625 -2.304688 -1.34375 -2.546875 L -1.421875 -2.609375 C -1.492188 -2.660156 -1.53125 -2.726562 -1.53125 -2.8125 C -1.539062 -2.90625 -1.519531 -2.988281 -1.46875 -3.0625 L -0.578125 -4.140625 C -0.515625 -4.210938 -0.441406 -4.25 -0.359375 -4.25 C -0.273438 -4.257812 -0.195312 -4.238281 -0.125 -4.1875 L -0.046875 -4.125 C 0.0859375 -4.007812 0.234375 -3.957031 0.390625 -3.96875 C 0.554688 -3.988281 0.691406 -4.0625 0.796875 -4.1875 L 2.65625 -6.453125 C 2.769531 -6.585938 2.816406 -6.734375 2.796875 -6.890625 C 2.773438 -7.046875 2.695312 -7.179688 2.5625 -7.296875 L 1.890625 -7.84375 C 1.765625 -7.945312 1.625 -7.988281 1.46875 -7.96875 C 1.320312 -7.957031 1.191406 -7.882812 1.078125 -7.75 L -0.78125 -5.484375 C -1.007812 -5.203125 -1.28125 -4.984375 -1.59375 -4.828125 C -1.90625 -4.671875 -2.226562 -4.578125 -2.5625 -4.546875 C -2.90625 -4.523438 -3.25 -4.5625 -3.59375 -4.65625 C -3.9375 -4.757812 -4.242188 -4.921875 -4.515625 -5.140625 L -5.1875 -5.703125 C -5.46875 -5.929688 -5.6875 -6.203125 -5.84375 -6.515625 C -6 -6.828125 -6.09375 -7.148438 -6.125 -7.484375 C -6.164062 -7.816406 -6.140625 -8.148438 -6.046875 -8.484375 C -5.953125 -8.816406 -5.789062 -9.125 -5.5625 -9.40625 L -3.703125 -11.671875 C -3.472656 -11.953125 -3.203125 -12.171875 -2.890625 -12.328125 C -2.578125 -12.484375 -2.25 -12.578125 -1.90625 -12.609375 C -1.570312 -12.648438 -1.238281 -12.617188 -0.90625 -12.515625 C -0.570312 -12.421875 -0.265625 -12.257812 0.015625 -12.03125 L 0.09375 -11.953125 C 0.164062 -11.898438 0.207031 -11.828125 0.21875 -11.734375 C 0.238281 -11.648438 0.222656 -11.578125 0.171875 -11.515625 Z M -0.71875 -10.421875 "/></g></g></g><g fill="#403029" fill-opacity="1"><g transform="translate(119.519269, 116.4142)"><g><path d="M -1.875 -12.078125 C -1.601562 -12.328125 -1.300781 -12.503906 -0.96875 -12.609375 C -0.632812 -12.722656 -0.300781 -12.769531 0.03125 -12.75 C 0.363281 -12.738281 0.6875 -12.660156 1 -12.515625 C 1.320312 -12.367188 1.601562 -12.164062 1.84375 -11.90625 L 5.171875 -8.203125 C 5.410156 -7.929688 5.582031 -7.628906 5.6875 -7.296875 C 5.800781 -6.960938 5.847656 -6.625 5.828125 -6.28125 C 5.816406 -5.945312 5.738281 -5.617188 5.59375 -5.296875 C 5.445312 -4.984375 5.238281 -4.703125 4.96875 -4.453125 L 2.796875 -2.5 C 2.523438 -2.257812 2.222656 -2.082031 1.890625 -1.96875 C 1.554688 -1.863281 1.21875 -1.816406 0.875 -1.828125 C 0.539062 -1.847656 0.21875 -1.929688 -0.09375 -2.078125 C -0.414062 -2.222656 -0.695312 -2.429688 -0.9375 -2.703125 L -4.265625 -6.40625 C -4.503906 -6.664062 -4.675781 -6.960938 -4.78125 -7.296875 C -4.894531 -7.628906 -4.941406 -7.960938 -4.921875 -8.296875 C -4.898438 -8.640625 -4.816406 -8.96875 -4.671875 -9.28125 C -4.523438 -9.601562 -4.316406 -9.882812 -4.046875 -10.125 Z M 0.328125 -10.53125 C 0.210938 -10.65625 0.078125 -10.722656 -0.078125 -10.734375 C -0.242188 -10.742188 -0.390625 -10.6875 -0.515625 -10.5625 L -2.6875 -8.609375 C -2.8125 -8.503906 -2.878906 -8.367188 -2.890625 -8.203125 C -2.910156 -8.046875 -2.863281 -7.90625 -2.75 -7.78125 L 0.578125 -4.078125 C 0.691406 -3.941406 0.828125 -3.867188 0.984375 -3.859375 C 1.148438 -3.859375 1.296875 -3.910156 1.421875 -4.015625 L 3.59375 -5.96875 C 3.71875 -6.09375 3.785156 -6.234375 3.796875 -6.390625 C 3.816406 -6.546875 3.769531 -6.691406 3.65625 -6.828125 Z M 0.328125 -10.53125 "/></g></g></g><g fill="#403029" fill-opacity="1"><g transform="translate(130.30873, 107.109055)"><g><path d="M 2.03125 -13.609375 C 2.101562 -13.648438 2.179688 -13.664062 2.265625 -13.65625 C 2.347656 -13.625 2.410156 -13.570312 2.453125 -13.5 L 7.234375 -5.125 C 7.273438 -5.039062 7.285156 -4.957031 7.265625 -4.875 C 7.242188 -4.789062 7.195312 -4.722656 7.125 -4.671875 L 5.96875 -3.921875 C 5.894531 -3.867188 5.804688 -3.84375 5.703125 -3.84375 C 5.578125 -3.832031 5.472656 -3.84375 5.390625 -3.875 L 2.828125 -5.171875 L 2.984375 -2.296875 C 2.992188 -2.210938 2.976562 -2.125 2.9375 -2.03125 C 2.875 -1.925781 2.8125 -1.847656 2.75 -1.796875 L 1.609375 -1.046875 C 1.535156 -1.003906 1.453125 -0.988281 1.359375 -1 C 1.273438 -1.007812 1.203125 -1.050781 1.140625 -1.125 L -4.640625 -8.84375 C -4.703125 -8.90625 -4.722656 -8.984375 -4.703125 -9.078125 C -4.679688 -9.160156 -4.632812 -9.222656 -4.5625 -9.265625 L -3.390625 -10.046875 C -3.316406 -10.097656 -3.234375 -10.117188 -3.140625 -10.109375 C -3.054688 -10.085938 -2.984375 -10.039062 -2.921875 -9.96875 L 1.09375 -4.5 L 1.0625 -6.375 C 1.050781 -6.457031 1.082031 -6.550781 1.15625 -6.65625 C 1.1875 -6.757812 1.238281 -6.832031 1.3125 -6.875 L 1.859375 -7.234375 C 1.929688 -7.285156 2.035156 -7.316406 2.171875 -7.328125 C 2.265625 -7.328125 2.351562 -7.3125 2.4375 -7.28125 L 4.171875 -6.484375 L 0.734375 -12.375 C 0.691406 -12.457031 0.6875 -12.539062 0.71875 -12.625 C 0.738281 -12.71875 0.785156 -12.785156 0.859375 -12.828125 Z M 2.03125 -13.609375 "/></g></g></g><g fill="#403029" fill-opacity="1"><g transform="translate(142.375989, 99.534158)"><g><path d="M 8.0625 -3.703125 L 1.703125 -0.78125 C 1.617188 -0.738281 1.535156 -0.734375 1.453125 -0.765625 C 1.367188 -0.796875 1.304688 -0.851562 1.265625 -0.9375 L -2.734375 -9.671875 C -2.773438 -9.753906 -2.78125 -9.835938 -2.75 -9.921875 C -2.71875 -10.003906 -2.660156 -10.066406 -2.578125 -10.109375 L -1.3125 -10.6875 C -1.238281 -10.71875 -1.15625 -10.71875 -1.0625 -10.6875 C -0.976562 -10.664062 -0.914062 -10.613281 -0.875 -10.53125 L 2.40625 -3.359375 L 7.203125 -5.5625 C 7.296875 -5.59375 7.378906 -5.59375 7.453125 -5.5625 C 7.535156 -5.53125 7.597656 -5.472656 7.640625 -5.390625 L 8.21875 -4.125 C 8.257812 -4.039062 8.265625 -3.957031 8.234375 -3.875 C 8.210938 -3.789062 8.15625 -3.734375 8.0625 -3.703125 Z M 8.0625 -3.703125 "/></g></g></g><g fill="#403029" fill-opacity="1"><g transform="translate(155.446032, 93.862142)"><g><path d="M 3.59375 -1.03125 C 3.25 -0.925781 2.90625 -0.898438 2.5625 -0.953125 C 2.21875 -1.003906 1.894531 -1.109375 1.59375 -1.265625 C 1.300781 -1.429688 1.039062 -1.648438 0.8125 -1.921875 C 0.59375 -2.191406 0.429688 -2.503906 0.328125 -2.859375 L -1.671875 -9.859375 C -1.691406 -9.953125 -1.679688 -10.035156 -1.640625 -10.109375 C -1.597656 -10.191406 -1.535156 -10.242188 -1.453125 -10.265625 L -0.109375 -10.65625 C -0.015625 -10.675781 0.0664062 -10.664062 0.140625 -10.625 C 0.222656 -10.582031 0.273438 -10.515625 0.296875 -10.421875 L 2.296875 -3.421875 C 2.347656 -3.253906 2.441406 -3.128906 2.578125 -3.046875 C 2.722656 -2.972656 2.875 -2.957031 3.03125 -3 L 5.859375 -3.796875 C 6.023438 -3.847656 6.144531 -3.941406 6.21875 -4.078125 C 6.289062 -4.222656 6.300781 -4.378906 6.25 -4.546875 L 4.25 -11.546875 C 4.226562 -11.640625 4.238281 -11.722656 4.28125 -11.796875 C 4.320312 -11.878906 4.382812 -11.9375 4.46875 -11.96875 L 5.828125 -12.34375 C 5.898438 -12.375 5.976562 -12.363281 6.0625 -12.3125 C 6.15625 -12.269531 6.210938 -12.203125 6.234375 -12.109375 L 8.234375 -5.109375 C 8.335938 -4.753906 8.363281 -4.40625 8.3125 -4.0625 C 8.269531 -3.71875 8.164062 -3.394531 8 -3.09375 C 7.84375 -2.800781 7.625 -2.539062 7.34375 -2.3125 C 7.070312 -2.09375 6.765625 -1.929688 6.421875 -1.828125 Z M 3.59375 -1.03125 "/></g></g></g><g fill="#403029" fill-opacity="1"><g transform="translate(169.22098, 90.222289)"><g><path d="M 7.625 -11.328125 C 7.707031 -11.335938 7.785156 -11.316406 7.859375 -11.265625 C 7.929688 -11.210938 7.972656 -11.140625 7.984375 -11.046875 L 8.171875 -9.65625 C 8.179688 -9.5625 8.15625 -9.476562 8.09375 -9.40625 C 8.03125 -9.34375 7.957031 -9.304688 7.875 -9.296875 L 5.140625 -8.953125 L 6.140625 -1.125 C 6.148438 -1.03125 6.128906 -0.945312 6.078125 -0.875 C 6.023438 -0.800781 5.953125 -0.757812 5.859375 -0.75 L 4.46875 -0.578125 C 4.382812 -0.566406 4.304688 -0.585938 4.234375 -0.640625 C 4.160156 -0.691406 4.117188 -0.765625 4.109375 -0.859375 L 3.109375 -8.6875 L 0.375 -8.34375 C 0.28125 -8.332031 0.195312 -8.347656 0.125 -8.390625 C 0.0625 -8.441406 0.0234375 -8.515625 0.015625 -8.609375 L -0.171875 -10 C -0.179688 -10.09375 -0.15625 -10.175781 -0.09375 -10.25 C -0.0390625 -10.320312 0.03125 -10.363281 0.125 -10.375 Z M 7.625 -11.328125 "/></g></g></g><g fill="#403029" fill-opacity="1"><g transform="translate(183.386892, 88.697552)"><g><path d="M 9.328125 -8.3125 C 9.328125 -8.21875 9.289062 -8.140625 9.21875 -8.078125 C 9.15625 -8.023438 9.078125 -8.003906 8.984375 -8.015625 L 6.421875 -8.078125 L 6.28125 -1.90625 L 8.84375 -1.84375 C 8.9375 -1.832031 9.015625 -1.796875 9.078125 -1.734375 C 9.140625 -1.671875 9.171875 -1.59375 9.171875 -1.5 L 9.125 -0.109375 C 9.125 -0.015625 9.09375 0.0625 9.03125 0.125 C 8.96875 0.1875 8.890625 0.210938 8.796875 0.203125 L 1.640625 0.03125 C 1.554688 0.03125 1.476562 0 1.40625 -0.0625 C 1.34375 -0.125 1.3125 -0.203125 1.3125 -0.296875 L 1.359375 -1.6875 C 1.359375 -1.78125 1.390625 -1.859375 1.453125 -1.921875 C 1.523438 -1.984375 1.601562 -2.015625 1.6875 -2.015625 L 4.234375 -1.953125 L 4.375 -8.125 L 1.828125 -8.1875 C 1.742188 -8.1875 1.671875 -8.210938 1.609375 -8.265625 C 1.546875 -8.328125 1.515625 -8.40625 1.515625 -8.5 L 1.546875 -9.90625 C 1.546875 -10 1.582031 -10.078125 1.65625 -10.140625 C 1.726562 -10.203125 1.804688 -10.234375 1.890625 -10.234375 L 9.046875 -10.0625 C 9.140625 -10.050781 9.210938 -10.015625 9.265625 -9.953125 C 9.328125 -9.890625 9.359375 -9.8125 9.359375 -9.71875 Z M 9.328125 -8.3125 "/></g></g></g><g fill="#403029" fill-opacity="1"><g transform="translate(197.620925, 89.322679)"><g><path d="M 8.34375 -8.9375 C 8.71875 -8.863281 9.046875 -8.726562 9.328125 -8.53125 C 9.617188 -8.34375 9.859375 -8.109375 10.046875 -7.828125 C 10.242188 -7.554688 10.382812 -7.25 10.46875 -6.90625 C 10.5625 -6.570312 10.578125 -6.234375 10.515625 -5.890625 L 9.640625 -0.96875 C 9.578125 -0.613281 9.445312 -0.289062 9.25 0 C 9.0625 0.28125 8.828125 0.515625 8.546875 0.703125 C 8.273438 0.898438 7.96875 1.039062 7.625 1.125 C 7.289062 1.21875 6.9375 1.226562 6.5625 1.15625 L 3.6875 0.65625 C 3.332031 0.59375 3.007812 0.460938 2.71875 0.265625 C 2.4375 0.0664062 2.195312 -0.164062 2 -0.4375 C 1.8125 -0.71875 1.671875 -1.023438 1.578125 -1.359375 C 1.492188 -1.703125 1.484375 -2.050781 1.546875 -2.40625 L 2.421875 -7.328125 C 2.484375 -7.671875 2.609375 -7.984375 2.796875 -8.265625 C 2.992188 -8.554688 3.226562 -8.796875 3.5 -8.984375 C 3.78125 -9.179688 4.085938 -9.320312 4.421875 -9.40625 C 4.765625 -9.488281 5.113281 -9.5 5.46875 -9.4375 Z M 8.5 -6.25 C 8.53125 -6.40625 8.492188 -6.546875 8.390625 -6.671875 C 8.296875 -6.804688 8.160156 -6.890625 7.984375 -6.921875 L 5.109375 -7.421875 C 4.953125 -7.453125 4.804688 -7.421875 4.671875 -7.328125 C 4.546875 -7.242188 4.46875 -7.125 4.4375 -6.96875 L 3.5625 -2.046875 C 3.53125 -1.878906 3.5625 -1.726562 3.65625 -1.59375 C 3.757812 -1.46875 3.890625 -1.390625 4.046875 -1.359375 L 6.921875 -0.859375 C 7.097656 -0.828125 7.25 -0.851562 7.375 -0.9375 C 7.507812 -1.03125 7.59375 -1.160156 7.625 -1.328125 Z M 8.5 -6.25 "/></g></g></g><g fill="#403029" fill-opacity="1"><g transform="translate(211.598602, 92.083421)"><g><path d="M 10.078125 -7.09375 C 10.109375 -7.175781 10.160156 -7.234375 10.234375 -7.265625 C 10.304688 -7.304688 10.382812 -7.3125 10.46875 -7.28125 L 11.8125 -6.84375 C 11.882812 -6.8125 11.945312 -6.753906 12 -6.671875 C 12.050781 -6.597656 12.0625 -6.519531 12.03125 -6.4375 L 8.953125 2.671875 C 8.921875 2.765625 8.859375 2.828125 8.765625 2.859375 C 8.679688 2.898438 8.601562 2.90625 8.53125 2.875 L 7.1875 2.4375 C 7.101562 2.40625 7.039062 2.347656 7 2.265625 C 6.96875 2.191406 6.96875 2.109375 7 2.015625 L 8.109375 -1.296875 L 5.390625 -6.109375 L 3.09375 0.703125 C 3.0625 0.796875 3.003906 0.859375 2.921875 0.890625 C 2.847656 0.929688 2.765625 0.9375 2.671875 0.90625 L 1.359375 0.453125 C 1.273438 0.429688 1.210938 0.378906 1.171875 0.296875 C 1.128906 0.222656 1.125 0.140625 1.15625 0.046875 L 4.234375 -9.0625 C 4.265625 -9.144531 4.316406 -9.203125 4.390625 -9.234375 C 4.472656 -9.273438 4.554688 -9.285156 4.640625 -9.265625 L 5.953125 -8.8125 C 6.046875 -8.78125 6.140625 -8.726562 6.234375 -8.65625 C 6.328125 -8.582031 6.394531 -8.507812 6.4375 -8.4375 L 9 -3.921875 Z M 10.078125 -7.09375 "/></g></g></g><g fill="#403029" fill-opacity="1"><g transform="translate(225.001432, 96.91686)"><g><path d="M 10.046875 -2.90625 C 9.960938 -2.945312 9.90625 -3.007812 9.875 -3.09375 C 9.851562 -3.175781 9.863281 -3.257812 9.90625 -3.34375 L 9.953125 -3.453125 C 10.023438 -3.597656 10.035156 -3.742188 9.984375 -3.890625 C 9.941406 -4.035156 9.84375 -4.148438 9.6875 -4.234375 L 7.078125 -5.578125 C 6.941406 -5.648438 6.796875 -5.660156 6.640625 -5.609375 C 6.484375 -5.566406 6.367188 -5.472656 6.296875 -5.328125 L 5.890625 -4.546875 C 5.816406 -4.398438 5.804688 -4.25 5.859375 -4.09375 C 5.910156 -3.9375 6.003906 -3.820312 6.140625 -3.75 L 8.75 -2.40625 C 9.070312 -2.238281 9.34375 -2.019531 9.5625 -1.75 C 9.78125 -1.476562 9.9375 -1.179688 10.03125 -0.859375 C 10.132812 -0.535156 10.175781 -0.203125 10.15625 0.140625 C 10.132812 0.492188 10.039062 0.832031 9.875 1.15625 L 9.484375 1.921875 C 9.316406 2.253906 9.097656 2.523438 8.828125 2.734375 C 8.554688 2.953125 8.257812 3.113281 7.9375 3.21875 C 7.613281 3.320312 7.273438 3.363281 6.921875 3.34375 C 6.578125 3.320312 6.242188 3.226562 5.921875 3.0625 L 3.3125 1.71875 C 3 1.550781 2.734375 1.332031 2.515625 1.0625 C 2.296875 0.789062 2.132812 0.492188 2.03125 0.171875 C 1.9375 -0.148438 1.898438 -0.484375 1.921875 -0.828125 C 1.941406 -1.171875 2.035156 -1.507812 2.203125 -1.84375 L 2.25 -1.921875 C 2.289062 -2.003906 2.351562 -2.0625 2.4375 -2.09375 C 2.519531 -2.125 2.601562 -2.117188 2.6875 -2.078125 L 3.921875 -1.4375 C 4.003906 -1.394531 4.054688 -1.328125 4.078125 -1.234375 C 4.109375 -1.148438 4.101562 -1.066406 4.0625 -0.984375 L 4.015625 -0.90625 C 3.929688 -0.75 3.914062 -0.59375 3.96875 -0.4375 C 4.019531 -0.28125 4.113281 -0.164062 4.25 -0.09375 L 6.859375 1.25 C 7.015625 1.332031 7.164062 1.34375 7.3125 1.28125 C 7.46875 1.226562 7.585938 1.125 7.671875 0.96875 L 8.0625 0.203125 C 8.144531 0.0546875 8.160156 -0.0859375 8.109375 -0.234375 C 8.054688 -0.378906 7.953125 -0.492188 7.796875 -0.578125 L 5.1875 -1.921875 C 4.875 -2.085938 4.609375 -2.304688 4.390625 -2.578125 C 4.179688 -2.847656 4.023438 -3.144531 3.921875 -3.46875 C 3.816406 -3.789062 3.773438 -4.128906 3.796875 -4.484375 C 3.828125 -4.835938 3.921875 -5.171875 4.078125 -5.484375 L 4.484375 -6.265625 C 4.648438 -6.585938 4.867188 -6.859375 5.140625 -7.078125 C 5.410156 -7.296875 5.707031 -7.457031 6.03125 -7.5625 C 6.351562 -7.664062 6.6875 -7.707031 7.03125 -7.6875 C 7.382812 -7.664062 7.71875 -7.570312 8.03125 -7.40625 L 10.640625 -6.0625 C 10.960938 -5.894531 11.234375 -5.675781 11.453125 -5.40625 C 11.671875 -5.132812 11.828125 -4.835938 11.921875 -4.515625 C 12.023438 -4.191406 12.066406 -3.851562 12.046875 -3.5 C 12.023438 -3.15625 11.929688 -2.820312 11.765625 -2.5 L 11.71875 -2.390625 C 11.675781 -2.304688 11.613281 -2.253906 11.53125 -2.234375 C 11.445312 -2.210938 11.367188 -2.222656 11.296875 -2.265625 Z M 10.046875 -2.90625 "/></g></g></g><g fill="#403029" fill-opacity="1"><g transform="translate(237.52341, 103.717317)"><g/></g></g><g fill="#403029" fill-opacity="1"><g transform="translate(112.916702, 262.274784)"><g><path d="M 11.921875 -2.671875 C 11.960938 -2.628906 11.988281 -2.570312 12 -2.5 C 12.019531 -2.4375 12.019531 -2.378906 12 -2.328125 L 9.796875 2.859375 C 9.796875 2.898438 9.769531 2.953125 9.71875 3.015625 C 9.664062 3.085938 9.617188 3.144531 9.578125 3.1875 L 6.59375 6.21875 C 6.5 6.3125 6.398438 6.3125 6.296875 6.21875 L 5.796875 5.71875 C 5.703125 5.625 5.703125 5.53125 5.796875 5.4375 L 7.75 3.453125 L 3.875 -0.375 L 1.921875 1.609375 C 1.828125 1.703125 1.734375 1.703125 1.640625 1.609375 L 1.125 1.109375 C 1.019531 1.003906 1.015625 0.90625 1.109375 0.8125 L 4.09375 -2.21875 C 4.132812 -2.257812 4.191406 -2.300781 4.265625 -2.34375 C 4.335938 -2.394531 4.390625 -2.425781 4.421875 -2.4375 L 9.578125 -4.703125 C 9.640625 -4.734375 9.703125 -4.738281 9.765625 -4.71875 C 9.835938 -4.695312 9.890625 -4.671875 9.921875 -4.640625 Z M 8.53125 2.671875 L 8.78125 2.40625 L 10.71875 -2.234375 L 9.515625 -3.421875 L 4.90625 -1.421875 L 4.65625 -1.15625 Z M 8.53125 2.671875 "/></g></g></g><g fill="#403029" fill-opacity="1"><g transform="translate(124.296981, 272.961971)"><g/></g></g><g fill="#403029" fill-opacity="1"><g transform="translate(137.143525, 281.799415)"><g><path d="M 11.453125 -2.390625 C 11.390625 -2.273438 11.296875 -2.253906 11.171875 -2.328125 L 10.53125 -2.65625 C 10.40625 -2.71875 10.375 -2.804688 10.4375 -2.921875 L 10.765625 -3.546875 C 10.890625 -3.804688 10.90625 -4.070312 10.8125 -4.34375 C 10.726562 -4.613281 10.5625 -4.816406 10.3125 -4.953125 L 7.34375 -6.484375 C 7.082031 -6.617188 6.8125 -6.640625 6.53125 -6.546875 C 6.257812 -6.460938 6.054688 -6.289062 5.921875 -6.03125 L 3.21875 -0.796875 C 3.082031 -0.546875 3.0625 -0.28125 3.15625 0 C 3.25 0.269531 3.425781 0.472656 3.6875 0.609375 L 6.65625 2.140625 C 6.90625 2.273438 7.160156 2.300781 7.421875 2.21875 C 7.679688 2.144531 7.882812 1.976562 8.03125 1.71875 L 8.359375 1.09375 C 8.390625 1.039062 8.429688 1.003906 8.484375 0.984375 C 8.535156 0.960938 8.585938 0.96875 8.640625 1 L 9.28125 1.328125 C 9.332031 1.359375 9.367188 1.398438 9.390625 1.453125 C 9.410156 1.515625 9.40625 1.570312 9.375 1.625 L 9.046875 2.25 C 8.910156 2.519531 8.726562 2.742188 8.5 2.921875 C 8.28125 3.097656 8.035156 3.222656 7.765625 3.296875 C 7.503906 3.378906 7.226562 3.410156 6.9375 3.390625 C 6.65625 3.367188 6.382812 3.289062 6.125 3.15625 L 3.15625 1.625 C 2.882812 1.488281 2.65625 1.304688 2.46875 1.078125 C 2.289062 0.859375 2.160156 0.617188 2.078125 0.359375 C 1.992188 0.0976562 1.960938 -0.175781 1.984375 -0.46875 C 2.003906 -0.769531 2.082031 -1.050781 2.21875 -1.3125 L 4.921875 -6.546875 C 5.066406 -6.816406 5.25 -7.039062 5.46875 -7.21875 C 5.695312 -7.40625 5.941406 -7.539062 6.203125 -7.625 C 6.460938 -7.707031 6.738281 -7.738281 7.03125 -7.71875 C 7.320312 -7.707031 7.601562 -7.632812 7.875 -7.5 L 10.84375 -5.96875 C 11.101562 -5.832031 11.320312 -5.648438 11.5 -5.421875 C 11.675781 -5.191406 11.804688 -4.945312 11.890625 -4.6875 C 11.984375 -4.425781 12.019531 -4.148438 12 -3.859375 C 11.988281 -3.566406 11.914062 -3.285156 11.78125 -3.015625 Z M 11.453125 -2.390625 "/></g></g></g><g fill="#403029" fill-opacity="1"><g transform="translate(151.187507, 288.613663)"><g><path d="M 3.359375 1.140625 C 3.078125 1.035156 2.828125 0.882812 2.609375 0.6875 C 2.398438 0.5 2.234375 0.28125 2.109375 0.03125 C 1.984375 -0.207031 1.910156 -0.472656 1.890625 -0.765625 C 1.867188 -1.054688 1.90625 -1.347656 2 -1.640625 L 3.875 -7.21875 C 3.976562 -7.5 4.125 -7.75 4.3125 -7.96875 C 4.507812 -8.1875 4.734375 -8.359375 4.984375 -8.484375 C 5.234375 -8.609375 5.5 -8.679688 5.78125 -8.703125 C 6.070312 -8.722656 6.359375 -8.679688 6.640625 -8.578125 L 9.8125 -7.515625 C 10.082031 -7.421875 10.328125 -7.28125 10.546875 -7.09375 C 10.765625 -6.90625 10.9375 -6.679688 11.0625 -6.421875 C 11.195312 -6.171875 11.273438 -5.898438 11.296875 -5.609375 C 11.316406 -5.316406 11.273438 -5.03125 11.171875 -4.75 L 9.296875 0.828125 C 9.203125 1.117188 9.054688 1.375 8.859375 1.59375 C 8.671875 1.8125 8.445312 1.976562 8.1875 2.09375 C 7.9375 2.207031 7.664062 2.273438 7.375 2.296875 C 7.082031 2.328125 6.800781 2.296875 6.53125 2.203125 Z M 6.28125 -7.5 C 6.007812 -7.59375 5.742188 -7.578125 5.484375 -7.453125 C 5.222656 -7.328125 5.046875 -7.128906 4.953125 -6.859375 L 3.078125 -1.28125 C 2.984375 -1 3 -0.726562 3.125 -0.46875 C 3.25 -0.207031 3.445312 -0.03125 3.71875 0.0625 L 6.890625 1.125 C 7.148438 1.21875 7.410156 1.203125 7.671875 1.078125 C 7.941406 0.953125 8.125 0.75 8.21875 0.46875 L 10.09375 -5.109375 C 10.1875 -5.378906 10.164062 -5.644531 10.03125 -5.90625 C 9.90625 -6.164062 9.710938 -6.34375 9.453125 -6.4375 Z M 6.28125 -7.5 "/></g></g></g><g fill="#403029" fill-opacity="1"><g transform="translate(166.097231, 293.236093)"><g><path d="M 1.375 0.03125 L 3.09375 -9.671875 C 3.101562 -9.722656 3.132812 -9.765625 3.1875 -9.796875 C 3.238281 -9.828125 3.285156 -9.835938 3.328125 -9.828125 L 8.5625 -8.90625 C 8.851562 -8.863281 9.117188 -8.757812 9.359375 -8.59375 C 9.597656 -8.4375 9.800781 -8.242188 9.96875 -8.015625 C 10.144531 -7.785156 10.265625 -7.53125 10.328125 -7.25 C 10.390625 -6.96875 10.394531 -6.675781 10.34375 -6.375 L 9.3125 -0.578125 C 9.257812 -0.273438 9.15625 -0.00390625 9 0.234375 C 8.84375 0.484375 8.644531 0.679688 8.40625 0.828125 C 8.175781 0.984375 7.921875 1.09375 7.640625 1.15625 C 7.359375 1.226562 7.070312 1.242188 6.78125 1.203125 L 1.546875 0.28125 C 1.503906 0.269531 1.460938 0.238281 1.421875 0.1875 C 1.378906 0.132812 1.363281 0.0820312 1.375 0.03125 Z M 2.671875 -0.6875 L 6.984375 0.078125 C 7.265625 0.117188 7.519531 0.0625 7.75 -0.09375 C 7.988281 -0.257812 8.132812 -0.488281 8.1875 -0.78125 L 9.21875 -6.578125 C 9.269531 -6.867188 9.207031 -7.128906 9.03125 -7.359375 C 8.863281 -7.597656 8.640625 -7.738281 8.359375 -7.78125 L 4.046875 -8.546875 Z M 2.671875 -0.6875 "/></g></g></g><g fill="#403029" fill-opacity="1"><g transform="translate(181.532906, 295.561394)"><g><path d="M 1.578125 -0.171875 L 1.59375 -0.890625 C 1.601562 -0.941406 1.625 -0.988281 1.65625 -1.03125 C 1.695312 -1.070312 1.75 -1.09375 1.8125 -1.09375 L 4.6875 -1.03125 L 4.875 -9.015625 L 2 -9.078125 C 1.863281 -9.085938 1.796875 -9.164062 1.796875 -9.3125 L 1.8125 -10.03125 C 1.8125 -10.164062 1.878906 -10.226562 2.015625 -10.21875 L 8.890625 -10.0625 C 9.023438 -10.0625 9.09375 -9.992188 9.09375 -9.859375 L 9.078125 -9.140625 C 9.078125 -8.992188 9.007812 -8.921875 8.875 -8.921875 L 6.015625 -8.984375 L 5.828125 -1 L 8.6875 -0.9375 C 8.738281 -0.9375 8.785156 -0.910156 8.828125 -0.859375 C 8.867188 -0.816406 8.882812 -0.769531 8.875 -0.71875 L 8.859375 0 C 8.859375 0.132812 8.789062 0.203125 8.65625 0.203125 L 1.78125 0.046875 C 1.644531 0.0351562 1.578125 -0.0351562 1.578125 -0.171875 Z M 1.578125 -0.171875 "/></g></g></g><g fill="#403029" fill-opacity="1"><g transform="translate(197.142729, 295.536583)"><g><path d="M 7.84375 -1.21875 L 7.296875 -5.484375 L 1.34375 -9.234375 L 2.453125 -0.515625 C 2.472656 -0.378906 2.414062 -0.304688 2.28125 -0.296875 L 1.5625 -0.203125 C 1.507812 -0.191406 1.457031 -0.203125 1.40625 -0.234375 C 1.351562 -0.273438 1.320312 -0.320312 1.3125 -0.375 L 0.0625 -10.15625 C 0.0507812 -10.21875 0.0664062 -10.269531 0.109375 -10.3125 C 0.148438 -10.351562 0.195312 -10.378906 0.25 -10.390625 L 1.25 -10.515625 C 1.382812 -10.535156 1.507812 -10.507812 1.625 -10.4375 L 7.109375 -6.984375 L 6.59375 -11 C 6.570312 -11.132812 6.628906 -11.207031 6.765625 -11.21875 L 7.46875 -11.3125 C 7.613281 -11.332031 7.695312 -11.273438 7.71875 -11.140625 L 8.96875 -1.359375 C 8.988281 -1.222656 8.925781 -1.144531 8.78125 -1.125 L 8.078125 -1.03125 C 7.941406 -1.019531 7.863281 -1.082031 7.84375 -1.21875 Z M 7.84375 -1.21875 "/></g></g></g><g fill="#403029" fill-opacity="1"><g transform="translate(212.570602, 293.162218)"><g><path d="M 6.953125 -7.921875 C 7.015625 -7.941406 7.070312 -7.929688 7.125 -7.890625 C 7.175781 -7.859375 7.207031 -7.820312 7.21875 -7.78125 L 8.125 -4.609375 C 8.207031 -4.316406 8.226562 -4.023438 8.1875 -3.734375 C 8.15625 -3.441406 8.066406 -3.171875 7.921875 -2.921875 C 7.785156 -2.679688 7.601562 -2.46875 7.375 -2.28125 C 7.15625 -2.101562 6.90625 -1.972656 6.625 -1.890625 L 3.40625 -0.96875 C 3.113281 -0.882812 2.828125 -0.863281 2.546875 -0.90625 C 2.265625 -0.945312 2 -1.03125 1.75 -1.15625 C 1.507812 -1.289062 1.296875 -1.472656 1.109375 -1.703125 C 0.921875 -1.929688 0.785156 -2.191406 0.703125 -2.484375 L -0.90625 -8.140625 C -0.988281 -8.429688 -1.007812 -8.71875 -0.96875 -9 C -0.9375 -9.289062 -0.851562 -9.554688 -0.71875 -9.796875 C -0.582031 -10.046875 -0.40625 -10.257812 -0.1875 -10.4375 C 0.03125 -10.625 0.285156 -10.757812 0.578125 -10.84375 L 3.796875 -11.765625 C 4.078125 -11.847656 4.359375 -11.867188 4.640625 -11.828125 C 4.929688 -11.785156 5.195312 -11.695312 5.4375 -11.5625 C 5.675781 -11.4375 5.894531 -11.265625 6.09375 -11.046875 C 6.289062 -10.828125 6.429688 -10.570312 6.515625 -10.28125 L 6.703125 -9.609375 C 6.734375 -9.472656 6.675781 -9.382812 6.53125 -9.34375 L 5.84375 -9.140625 C 5.707031 -9.109375 5.625 -9.160156 5.59375 -9.296875 L 5.40625 -9.96875 C 5.3125 -10.238281 5.140625 -10.441406 4.890625 -10.578125 C 4.640625 -10.710938 4.378906 -10.738281 4.109375 -10.65625 L 0.890625 -9.734375 C 0.609375 -9.660156 0.398438 -9.5 0.265625 -9.25 C 0.128906 -9 0.101562 -8.734375 0.1875 -8.453125 L 1.796875 -2.796875 C 1.878906 -2.515625 2.046875 -2.300781 2.296875 -2.15625 C 2.546875 -2.019531 2.8125 -1.988281 3.09375 -2.0625 L 6.3125 -2.984375 C 6.582031 -3.066406 6.785156 -3.234375 6.921875 -3.484375 C 7.066406 -3.742188 7.097656 -4.015625 7.015625 -4.296875 L 6.375 -6.578125 L 4.015625 -5.90625 C 3.972656 -5.882812 3.921875 -5.882812 3.859375 -5.90625 C 3.796875 -5.9375 3.757812 -5.984375 3.75 -6.046875 L 3.546875 -6.734375 C 3.535156 -6.773438 3.546875 -6.820312 3.578125 -6.875 C 3.617188 -6.9375 3.660156 -6.976562 3.703125 -7 Z M 6.953125 -7.921875 "/></g></g></g><g fill="#403029" fill-opacity="1"><g transform="translate(227.450725, 288.497649)"><g/></g></g><g fill="#403029" fill-opacity="1"><g transform="translate(241.46109, 281.649329)"><g><path d="M 3.546875 -11.15625 C 3.617188 -11.050781 3.59375 -10.957031 3.46875 -10.875 L 2.875 -10.484375 C 2.757812 -10.410156 2.664062 -10.425781 2.59375 -10.53125 L 2.203125 -11.125 C 2.023438 -11.351562 1.796875 -11.492188 1.515625 -11.546875 C 1.242188 -11.609375 0.992188 -11.5625 0.765625 -11.40625 L -2.03125 -9.578125 C -2.28125 -9.410156 -2.429688 -9.1875 -2.484375 -8.90625 C -2.546875 -8.632812 -2.5 -8.375 -2.34375 -8.125 L 0.890625 -3.203125 C 1.054688 -2.960938 1.273438 -2.8125 1.546875 -2.75 C 1.828125 -2.6875 2.09375 -2.738281 2.34375 -2.90625 L 5.140625 -4.734375 C 5.367188 -4.890625 5.515625 -5.101562 5.578125 -5.375 C 5.648438 -5.644531 5.609375 -5.90625 5.453125 -6.15625 L 5.0625 -6.765625 C 5.03125 -6.804688 5.019531 -6.851562 5.03125 -6.90625 C 5.039062 -6.96875 5.070312 -7.015625 5.125 -7.046875 L 5.71875 -7.4375 C 5.769531 -7.46875 5.820312 -7.476562 5.875 -7.46875 C 5.9375 -7.457031 5.984375 -7.429688 6.015625 -7.390625 L 6.40625 -6.78125 C 6.570312 -6.53125 6.675781 -6.257812 6.71875 -5.96875 C 6.769531 -5.6875 6.765625 -5.410156 6.703125 -5.140625 C 6.640625 -4.867188 6.523438 -4.613281 6.359375 -4.375 C 6.203125 -4.132812 6.003906 -3.9375 5.765625 -3.78125 L 2.96875 -1.953125 C 2.71875 -1.785156 2.453125 -1.675781 2.171875 -1.625 C 1.890625 -1.570312 1.613281 -1.570312 1.34375 -1.625 C 1.070312 -1.675781 0.8125 -1.785156 0.5625 -1.953125 C 0.320312 -2.117188 0.117188 -2.328125 -0.046875 -2.578125 L -3.28125 -7.5 C -3.445312 -7.75 -3.554688 -8.015625 -3.609375 -8.296875 C -3.660156 -8.585938 -3.65625 -8.867188 -3.59375 -9.140625 C -3.53125 -9.421875 -3.421875 -9.679688 -3.265625 -9.921875 C -3.109375 -10.160156 -2.90625 -10.363281 -2.65625 -10.53125 L 0.140625 -12.359375 C 0.378906 -12.515625 0.640625 -12.617188 0.921875 -12.671875 C 1.210938 -12.722656 1.492188 -12.722656 1.765625 -12.671875 C 2.035156 -12.617188 2.289062 -12.515625 2.53125 -12.359375 C 2.78125 -12.203125 2.988281 -12 3.15625 -11.75 Z M 3.546875 -11.15625 "/></g></g></g><g fill="#403029" fill-opacity="1"><g transform="translate(254.293698, 272.761647)"><g><path d="M 2.640625 -2.375 C 2.410156 -2.164062 2.160156 -2.015625 1.890625 -1.921875 C 1.617188 -1.835938 1.347656 -1.800781 1.078125 -1.8125 C 0.804688 -1.832031 0.535156 -1.90625 0.265625 -2.03125 C -0.00390625 -2.15625 -0.242188 -2.328125 -0.453125 -2.546875 L -4.375 -6.9375 C -4.582031 -7.15625 -4.726562 -7.398438 -4.8125 -7.671875 C -4.90625 -7.953125 -4.941406 -8.226562 -4.921875 -8.5 C -4.910156 -8.78125 -4.847656 -9.050781 -4.734375 -9.3125 C -4.617188 -9.570312 -4.445312 -9.804688 -4.21875 -10.015625 L -1.734375 -12.25 C -1.515625 -12.4375 -1.265625 -12.570312 -0.984375 -12.65625 C -0.710938 -12.75 -0.4375 -12.789062 -0.15625 -12.78125 C 0.125 -12.78125 0.394531 -12.71875 0.65625 -12.59375 C 0.914062 -12.46875 1.148438 -12.296875 1.359375 -12.078125 L 5.28125 -7.6875 C 5.488281 -7.46875 5.640625 -7.21875 5.734375 -6.9375 C 5.835938 -6.664062 5.875 -6.382812 5.84375 -6.09375 C 5.820312 -5.8125 5.75 -5.539062 5.625 -5.28125 C 5.507812 -5.019531 5.34375 -4.796875 5.125 -4.609375 Z M -3.453125 -9.15625 C -3.671875 -8.957031 -3.785156 -8.710938 -3.796875 -8.421875 C -3.816406 -8.140625 -3.726562 -7.894531 -3.53125 -7.6875 L 0.390625 -3.296875 C 0.585938 -3.078125 0.828125 -2.957031 1.109375 -2.9375 C 1.398438 -2.925781 1.65625 -3.019531 1.875 -3.21875 L 4.359375 -5.453125 C 4.566406 -5.640625 4.679688 -5.875 4.703125 -6.15625 C 4.722656 -6.445312 4.632812 -6.703125 4.4375 -6.921875 L 0.515625 -11.3125 C 0.316406 -11.519531 0.0703125 -11.628906 -0.21875 -11.640625 C -0.507812 -11.660156 -0.757812 -11.578125 -0.96875 -11.390625 Z M -3.453125 -9.15625 "/></g></g></g><g fill="#403029" fill-opacity="1"><g transform="translate(265.642182, 262.043486)"><g><path d="M -2.953125 -12.296875 C -2.972656 -12.347656 -2.976562 -12.410156 -2.96875 -12.484375 C -2.957031 -12.554688 -2.929688 -12.613281 -2.890625 -12.65625 L -2.3125 -13.359375 C -2.21875 -13.472656 -2.117188 -13.488281 -2.015625 -13.40625 L 5.609375 -7.140625 C 5.710938 -7.054688 5.71875 -6.957031 5.625 -6.84375 L 5.171875 -6.296875 C 5.085938 -6.179688 4.992188 -6.164062 4.890625 -6.25 L -1.78125 -11.734375 L -0.453125 -7.828125 C -0.429688 -7.773438 -0.425781 -7.710938 -0.4375 -7.640625 C -0.457031 -7.566406 -0.476562 -7.515625 -0.5 -7.484375 L -0.796875 -7.125 C -0.835938 -7.082031 -0.890625 -7.046875 -0.953125 -7.015625 C -1.015625 -6.984375 -1.078125 -6.972656 -1.140625 -6.984375 L -5.234375 -7.546875 L 1.4375 -2.0625 C 1.539062 -1.976562 1.546875 -1.882812 1.453125 -1.78125 L 1.015625 -1.234375 C 0.921875 -1.117188 0.820312 -1.101562 0.71875 -1.1875 L -6.90625 -7.453125 C -7.007812 -7.535156 -7.015625 -7.632812 -6.921875 -7.75 L -6.34375 -8.453125 C -6.3125 -8.484375 -6.257812 -8.515625 -6.1875 -8.546875 C -6.125 -8.578125 -6.066406 -8.585938 -6.015625 -8.578125 L -1.703125 -8.15625 Z M -2.953125 -12.296875 "/></g></g></g><g fill="#403029" fill-opacity="1"><g transform="translate(275.247856, 249.739081)"><g><path d="M 0.515625 -1.28125 L -7.953125 -6.3125 C -8.015625 -6.34375 -8.046875 -6.382812 -8.046875 -6.4375 C -8.054688 -6.5 -8.046875 -6.554688 -8.015625 -6.609375 L -5.296875 -11.171875 C -5.148438 -11.421875 -4.957031 -11.628906 -4.71875 -11.796875 C -4.488281 -11.972656 -4.234375 -12.09375 -3.953125 -12.15625 C -3.679688 -12.226562 -3.398438 -12.242188 -3.109375 -12.203125 C -2.828125 -12.171875 -2.554688 -12.078125 -2.296875 -11.921875 L -1.15625 -11.25 C -0.894531 -11.09375 -0.675781 -10.894531 -0.5 -10.65625 C -0.332031 -10.425781 -0.21875 -10.175781 -0.15625 -9.90625 C -0.09375 -9.632812 -0.078125 -9.351562 -0.109375 -9.0625 C -0.148438 -8.769531 -0.242188 -8.5 -0.390625 -8.25 L -2.640625 -4.46875 L 1.109375 -2.25 C 1.222656 -2.175781 1.242188 -2.082031 1.171875 -1.96875 L 0.8125 -1.359375 C 0.78125 -1.304688 0.734375 -1.269531 0.671875 -1.25 C 0.609375 -1.238281 0.554688 -1.25 0.515625 -1.28125 Z M -3.625 -5.0625 L -1.375 -8.84375 C -1.238281 -9.082031 -1.203125 -9.34375 -1.265625 -9.625 C -1.328125 -9.914062 -1.484375 -10.132812 -1.734375 -10.28125 L -2.875 -10.953125 C -3.125 -11.109375 -3.390625 -11.144531 -3.671875 -11.0625 C -3.960938 -10.988281 -4.175781 -10.832031 -4.3125 -10.59375 L -6.5625 -6.8125 Z M -3.625 -5.0625 "/></g></g></g><g fill="#403029" fill-opacity="1"><g transform="translate(282.891806, 236.128897)"><g><path d="M -7.03125 -9.984375 C -7.007812 -10.035156 -6.96875 -10.082031 -6.90625 -10.125 C -6.84375 -10.175781 -6.789062 -10.203125 -6.75 -10.203125 L -1.125 -10.15625 C -1.070312 -10.15625 -1.003906 -10.144531 -0.921875 -10.125 C -0.847656 -10.101562 -0.78125 -10.082031 -0.71875 -10.0625 L 3.21875 -8.46875 C 3.34375 -8.414062 3.378906 -8.320312 3.328125 -8.1875 L 3.0625 -7.546875 C 3.007812 -7.421875 2.921875 -7.382812 2.796875 -7.4375 L 0.21875 -8.484375 L -1.828125 -3.4375 L 0.75 -2.390625 C 0.875 -2.335938 0.910156 -2.25 0.859375 -2.125 L 0.59375 -1.46875 C 0.539062 -1.332031 0.453125 -1.289062 0.328125 -1.34375 L -3.609375 -2.9375 C -3.671875 -2.957031 -3.734375 -2.988281 -3.796875 -3.03125 C -3.867188 -3.070312 -3.921875 -3.113281 -3.953125 -3.15625 L -8.015625 -7.046875 C -8.054688 -7.085938 -8.082031 -7.140625 -8.09375 -7.203125 C -8.101562 -7.273438 -8.101562 -7.332031 -8.09375 -7.375 Z M -0.8125 -8.90625 L -1.140625 -9.03125 L -6.171875 -9.046875 L -6.8125 -7.484375 L -3.1875 -3.984375 L -2.859375 -3.859375 Z M -0.8125 -8.90625 "/></g></g></g><g fill="#403029" fill-opacity="1"><g transform="translate(288.399787, 221.523101)"><g><path d="M 1.640625 -7.765625 L -2.53125 -8.765625 L -8.171875 -4.53125 L 0.375 -2.484375 C 0.507812 -2.453125 0.5625 -2.367188 0.53125 -2.234375 L 0.359375 -1.53125 C 0.347656 -1.476562 0.316406 -1.4375 0.265625 -1.40625 C 0.210938 -1.375 0.160156 -1.363281 0.109375 -1.375 L -9.46875 -3.671875 C -9.53125 -3.679688 -9.570312 -3.710938 -9.59375 -3.765625 C -9.625 -3.816406 -9.632812 -3.867188 -9.625 -3.921875 L -9.390625 -4.890625 C -9.359375 -5.023438 -9.285156 -5.140625 -9.171875 -5.234375 L -4 -9.109375 L -7.9375 -10.0625 C -8.070312 -10.09375 -8.125 -10.175781 -8.09375 -10.3125 L -7.921875 -11 C -7.890625 -11.144531 -7.804688 -11.203125 -7.671875 -11.171875 L 1.90625 -8.875 C 2.039062 -8.84375 2.09375 -8.753906 2.0625 -8.609375 L 1.890625 -7.921875 C 1.859375 -7.785156 1.773438 -7.734375 1.640625 -7.765625 Z M 1.640625 -7.765625 "/></g></g></g><g fill="#403029" fill-opacity="1"><g transform="translate(291.642285, 206.252165)"><g><path d="M -7.171875 -2.125 C -7.222656 -2.09375 -7.285156 -2.0625 -7.359375 -2.03125 C -7.429688 -2.007812 -7.492188 -2 -7.546875 -2 L -9.921875 -2.203125 C -9.972656 -2.203125 -10.015625 -2.226562 -10.046875 -2.28125 C -10.085938 -2.332031 -10.109375 -2.382812 -10.109375 -2.4375 L -10.046875 -3.140625 C -10.035156 -3.191406 -10.007812 -3.234375 -9.96875 -3.265625 C -9.925781 -3.304688 -9.878906 -3.328125 -9.828125 -3.328125 L -7.90625 -3.15625 C -7.851562 -3.15625 -7.789062 -3.164062 -7.71875 -3.1875 C -7.644531 -3.21875 -7.582031 -3.253906 -7.53125 -3.296875 L -4.8125 -5.640625 L -7.09375 -8.40625 C -7.144531 -8.457031 -7.203125 -8.5 -7.265625 -8.53125 C -7.335938 -8.5625 -7.398438 -8.578125 -7.453125 -8.578125 L -9.375 -8.75 C -9.425781 -8.75 -9.46875 -8.769531 -9.5 -8.8125 C -9.539062 -8.851562 -9.5625 -8.90625 -9.5625 -8.96875 L -9.5 -9.6875 C -9.488281 -9.75 -9.460938 -9.796875 -9.421875 -9.828125 C -9.378906 -9.867188 -9.332031 -9.890625 -9.28125 -9.890625 L -6.90625 -9.6875 C -6.851562 -9.6875 -6.789062 -9.664062 -6.71875 -9.625 C -6.65625 -9.59375 -6.597656 -9.550781 -6.546875 -9.5 L -3.71875 -6.140625 L 0.28125 -5.796875 C 0.332031 -5.796875 0.375 -5.769531 0.40625 -5.71875 C 0.445312 -5.664062 0.46875 -5.613281 0.46875 -5.5625 L 0.40625 -4.84375 C 0.394531 -4.707031 0.320312 -4.644531 0.1875 -4.65625 L -3.8125 -5 Z M -7.171875 -2.125 "/></g></g></g><g clip-path="url(#369f468bf5)"><path fill="#403029" d="M 152.945312 189.914062 L 170.617188 207.585938 L 168.785156 209.417969 L 149.292969 189.914062 L 168.792969 170.410156 L 170.625 172.242188 Z M 194.394531 155.777344 L 196.832031 156.390625 L 182.199219 224.039062 L 179.765625 223.425781 Z M 207.800781 170.410156 L 227.304688 189.914062 L 207.800781 209.417969 L 205.96875 207.585938 L 223.640625 189.914062 L 205.96875 172.242188 Z M 207.800781 170.410156 " fill-opacity="1" fill-rule="nonzero"/></g></svg>